<?xml version="1.0" standalone="no"?>
<!DOCTYPE svg PUBLIC "-//W3C//DTD SVG 20010904//EN"
 "http://www.w3.org/TR/2001/REC-SVG-20010904/DTD/svg10.dtd">
<svg version="1.0" xmlns="http://www.w3.org/2000/svg"
 width="900.000000pt" height="675.000000pt" viewBox="0 0 900.000000 675.000000"
 preserveAspectRatio="xMidYMid meet">
<metadata>
Created by potrace 1.10, written by Peter Selinger 2001-2011
</metadata>
<g transform="translate(0.000000,675.000000) scale(0.100000,-0.100000)"
fill="#4169e1" stroke="none">
<path d="M0 5285 l0 -1465 119 0 c128 0 175 -10 206 -46 22 -25 165 -67 323
-96 35 -6 66 -17 69 -25 3 -7 13 -13 22 -13 9 0 32 -8 51 -19 19 -10 50 -22
67 -25 18 -4 35 -12 38 -17 4 -5 21 -9 39 -9 19 0 50 -7 71 -16 22 -9 49 -13
65 -9 16 3 31 2 35 -4 3 -6 21 -11 38 -11 18 0 52 -9 76 -21 25 -11 50 -18 57
-15 7 3 27 -2 44 -11 28 -14 33 -14 49 1 10 9 25 16 34 16 25 0 21 27 -5 35
-22 6 -22 7 7 16 60 19 134 1 235 -56 14 -8 33 -15 43 -15 10 0 27 -5 37 -10
48 -25 91 17 55 54 -8 8 -15 19 -15 24 0 5 -11 21 -24 35 -19 21 -21 26 -7 27
158 9 191 13 191 25 0 7 -9 15 -21 18 -25 7 -16 27 11 27 15 0 76 29 99 47 3
2 -4 10 -15 18 -11 8 -14 15 -6 15 17 0 15 40 -3 40 -9 0 -15 -9 -15 -25 0
-28 -12 -32 -30 -10 -7 9 -21 13 -30 10 -26 -8 -50 5 -50 26 0 10 5 19 10 19
6 0 10 7 10 15 0 17 45 21 55 5 3 -5 21 -10 40 -10 19 0 46 -5 62 -11 15 -6
62 -13 103 -15 41 -3 86 -7 100 -11 14 -3 41 -7 60 -9 19 -2 58 -6 87 -10 46
-5 52 -4 63 17 11 20 10 25 -11 40 -43 32 -73 57 -125 104 -33 29 -60 45 -78
45 -14 0 -26 5 -26 11 0 14 250 2 315 -16 28 -8 77 -18 110 -24 33 -5 68 -13
78 -16 13 -5 16 -3 11 8 -4 13 -63 35 -164 63 -14 4 -41 19 -60 33 -68 52
-164 97 -244 116 -33 7 -117 77 -128 106 -5 11 -17 19 -31 19 -57 0 -87 13
-107 45 -11 18 -18 39 -14 48 9 23 -79 77 -138 84 -35 4 -57 13 -73 30 -24 27
-46 41 -112 73 -24 12 -43 25 -43 29 0 15 -80 51 -127 58 -41 6 -47 10 -61 44
-8 21 -23 40 -34 42 -14 4 -18 11 -14 25 7 20 -27 42 -64 42 -14 0 -20 7 -20
21 0 18 3 19 15 9 21 -18 45 -5 45 25 0 18 -5 25 -19 25 -30 0 -81 48 -81 76
0 13 -6 25 -12 25 -7 1 -19 2 -26 3 -7 0 -18 12 -25 26 -13 25 -19 27 -110 31
-42 2 -43 22 -8 94 17 36 31 69 31 74 0 6 7 32 16 58 13 37 14 51 5 66 -10 15
-9 18 6 15 32 -5 29 38 -4 54 -16 8 -29 23 -31 36 -3 17 -8 21 -22 17 -19 -6
-54 31 -44 47 10 16 42 8 47 -13 3 -12 11 -19 18 -17 22 7 22 29 1 35 -11 2
-32 27 -46 54 -15 27 -30 48 -34 48 -37 -6 -44 27 -11 57 12 10 25 29 30 41 4
12 24 29 44 37 19 8 35 20 35 27 0 7 11 2 25 -11 19 -17 22 -27 15 -41 -15
-28 -12 -49 8 -49 18 0 49 -29 68 -67 10 -17 9 -23 -2 -27 -8 -3 -14 -16 -14
-29 0 -18 10 -27 41 -41 22 -10 49 -16 59 -13 11 3 26 -3 36 -14 9 -10 33 -23
53 -30 20 -6 40 -15 46 -20 5 -5 19 -9 31 -9 13 0 26 -5 29 -10 8 -13 100 -60
117 -60 8 0 30 -11 50 -25 20 -14 46 -25 56 -25 11 0 25 -7 32 -15 19 -23 37
-18 49 15 5 17 17 33 26 36 24 10 18 28 -25 80 -22 27 -39 54 -37 61 1 6 -20
37 -47 67 -41 46 -55 56 -82 56 -18 0 -36 -5 -39 -11 -5 -7 -13 -5 -24 5 -15
13 -22 14 -64 1 l-47 -14 -15 36 c-8 19 -15 42 -15 49 0 15 -36 19 -44 5 -3
-4 -16 -6 -29 -4 -22 4 -23 8 -22 76 2 71 17 127 33 127 5 0 19 -12 33 -26 27
-29 70 -54 94 -54 9 0 29 15 46 32 29 32 39 68 18 68 -6 0 -9 14 -7 32 4 41
28 47 64 19 19 -15 41 -21 76 -21 59 0 69 -16 37 -59 -15 -21 -29 -29 -40 -26
-11 4 -22 -1 -28 -14 -18 -32 -13 -54 18 -84 17 -15 33 -37 36 -48 4 -12 19
-22 37 -26 36 -7 61 -49 37 -63 -11 -8 -12 -13 -1 -30 16 -26 15 -45 -3 -60
-23 -19 -8 -30 40 -30 29 0 49 -6 57 -16 38 -48 78 -84 93 -84 14 0 15 3 5 15
-22 26 16 18 47 -11 18 -17 34 -23 49 -20 16 4 28 -2 46 -25 29 -34 95 -71
104 -58 8 14 24 10 24 -6 0 -21 59 -55 96 -55 17 0 37 -7 44 -15 18 -22 40
-18 40 6 0 28 18 59 34 59 29 0 96 -54 108 -87 7 -18 17 -34 23 -34 28 -4 41
-6 56 -8 8 0 35 -19 59 -40 25 -22 64 -49 87 -61 23 -12 45 -25 48 -31 4 -5
16 -9 29 -9 12 0 48 -16 80 -35 32 -19 60 -35 62 -35 2 0 22 -13 44 -29 21
-15 60 -34 85 -41 26 -7 49 -19 52 -27 10 -25 76 -45 151 -45 68 0 74 -2 84
-24 9 -18 8 -28 0 -36 -16 -16 -15 -28 3 -28 9 0 20 12 25 26 l10 25 26 -20
c15 -12 38 -21 52 -21 21 0 24 -3 19 -27 -3 -16 -8 -35 -11 -43 -10 -26 10
-41 79 -61 37 -10 76 -26 85 -34 12 -11 40 -16 96 -17 51 0 88 -6 103 -15 23
-15 67 -14 184 4 45 7 49 28 12 71 -31 37 -31 45 1 88 27 34 27 57 1 36 -18
-15 -30 -3 -16 14 6 7 8 23 4 35 -6 17 -12 20 -37 15 -30 -6 -30 -6 -24 29 4
21 2 50 -5 70 -20 55 -4 86 52 100 l46 12 -14 -28 c-8 -16 -13 -39 -11 -51 3
-20 10 -23 58 -26 48 -2 59 1 76 20 23 25 57 127 52 155 -4 30 11 43 51 43 27
0 49 9 76 30 21 17 41 30 44 30 15 0 31 -25 31 -48 0 -36 29 -24 65 27 37 54
100 121 112 121 5 0 17 -6 27 -13 19 -14 22 -61 12 -186 -5 -67 -4 -76 14 -88
11 -8 20 -21 20 -29 0 -25 39 -15 54 14 18 34 105 124 114 119 57 -33 83 -38
111 -26 35 16 62 71 64 133 2 38 6 46 33 61 18 10 39 33 49 55 15 34 15 40 2
61 -24 39 -29 77 -12 108 13 26 13 30 0 41 -10 8 -12 17 -6 24 5 6 12 21 15
33 6 17 4 22 -7 17 -10 -3 -14 3 -15 24 -1 33 -29 110 -50 134 -16 19 -8 38
16 38 21 0 82 -56 82 -76 0 -9 10 -14 28 -14 16 0 37 -7 48 -15 28 -21 49 -18
93 13 41 28 53 58 26 68 -8 4 -15 14 -15 24 0 25 -36 53 -60 47 -18 -4 -19 -3
-9 9 9 11 8 18 -5 33 -9 10 -14 25 -10 35 7 18 -52 80 -67 70 -5 -3 -32 6 -61
20 -29 13 -61 27 -70 30 -24 7 -23 23 2 31 13 4 20 15 20 31 0 13 5 24 10 24
6 0 10 -7 10 -15 0 -8 7 -15 15 -15 8 0 15 9 15 20 0 11 -4 20 -10 20 -5 0
-10 16 -10 35 0 24 -4 33 -13 29 -17 -6 -34 28 -42 83 -6 39 -5 43 19 49 42
10 50 37 21 68 -13 14 -29 26 -35 26 -5 0 -10 7 -10 16 0 11 6 15 19 11 12 -3
22 1 25 9 8 20 54 17 92 -7 19 -11 38 -18 44 -14 6 4 10 -7 10 -28 0 -27 5
-36 26 -46 23 -10 28 -9 41 9 8 11 21 20 29 20 8 0 14 5 14 10 0 6 20 25 45
42 25 18 45 38 45 45 0 7 4 13 10 13 5 0 17 14 25 31 13 23 14 34 5 44 -7 8
-8 20 -4 27 4 7 -5 3 -20 -10 -26 -20 -56 -29 -56 -17 0 2 11 21 25 41 24 36
33 74 17 74 -11 0 -43 56 -35 64 3 3 -1223 6 -2725 6 l-2732 0 0 -1465z m4945
934 c4 -16 2 -30 -4 -33 -14 -9 -35 38 -27 60 8 21 22 9 31 -27z m-3075 -339
c0 -5 -6 -10 -14 -10 -8 0 -16 -5 -18 -11 -2 -6 -13 -9 -23 -7 -17 4 -14 7 15
20 19 9 36 17 38 17 1 1 2 -3 2 -9z m-67 -132 c14 -19 18 -34 13 -54 -4 -15
-10 -23 -14 -17 -4 5 -17 15 -29 22 -28 14 -42 59 -22 72 19 12 29 7 52 -23z
m197 -8 c0 -16 -44 -30 -52 -17 -4 6 -4 15 -2 19 8 12 54 10 54 -2z m-705
-190 c-3 -5 -13 -10 -21 -10 -8 0 -14 5 -14 10 0 6 9 10 21 10 11 0 17 -4 14
-10z m482 -222 c-2 -13 -4 -5 -4 17 -1 22 1 32 4 23 2 -10 2 -28 0 -40z m2621
-170 c-4 -27 -28 -36 -28 -10 0 20 8 32 22 32 5 0 8 -10 6 -22z m-3338 -138
c0 -5 -9 -10 -21 -10 -11 0 -17 5 -14 10 3 6 13 10 21 10 8 0 14 -4 14 -10z
m-705 -760 c3 -5 27 -9 53 -8 98 5 226 -11 240 -29 11 -16 13 -16 25 1 11 15
20 16 87 6 41 -6 93 -12 115 -13 44 -3 214 -83 223 -106 3 -7 -5 -21 -18 -31
-22 -17 -23 -18 -4 -28 10 -5 42 -17 70 -25 74 -22 126 -72 95 -91 -10 -7
-108 17 -138 32 -10 5 -37 13 -60 17 -24 4 -45 11 -49 16 -3 5 -25 9 -50 9
-40 0 -190 55 -284 105 -14 7 -61 18 -104 24 -111 16 -176 40 -195 73 -9 15
-25 29 -35 30 -11 2 -21 9 -24 16 -4 15 44 17 53 2z m1687 -252 c44 0 68 -7
68 -20 0 -18 -109 -4 -128 16 -16 17 -16 18 5 11 13 -3 38 -6 55 -7z"/>
<path d="M5595 6655 c0 -52 4 -95 9 -95 5 0 31 -14 58 -31 44 -29 51 -30 78
-19 17 7 33 16 35 20 7 11 -25 100 -35 100 -5 0 2 19 15 43 42 73 39 77 -67
77 l-93 0 0 -95z"/>
<path d="M4323 4847 c-23 -7 -45 -15 -49 -19 -4 -4 -13 -3 -21 3 -18 16 -45
-7 -41 -35 4 -29 31 -31 81 -8 23 11 70 22 104 24 67 5 83 12 66 29 -17 17
-92 20 -140 6z"/>
<path d="M1995 4380 c3 -5 13 -10 21 -10 8 0 14 5 14 10 0 6 -9 10 -21 10 -11
0 -17 -4 -14 -10z"/>
<path d="M2452 4303 c-6 -3 -10 -9 -6 -14 7 -12 44 -12 44 0 0 11 -21 19 -38
14z"/>
<path d="M2838 4104 c-3 -3 -4 -14 -1 -25 5 -20 20 -22 63 -10 l24 7 -24 17
c-24 17 -52 22 -62 11z"/>
<path d="M2745 3930 c3 -5 13 -10 21 -10 8 0 12 5 9 10 -3 6 -13 10 -21 10 -8
0 -12 -4 -9 -10z"/>
<path d="M2526 3812 c-9 -15 23 -24 42 -12 10 5 12 10 5 10 -6 0 -18 3 -26 6
-8 3 -18 1 -21 -4z"/>
<path d="M2022 3728 c5 -15 28 -18 29 -3 0 6 -7 12 -17 13 -10 3 -15 -1 -12
-10z"/>
<path d="M0 3626 c0 -70 3 -86 15 -86 8 0 22 9 31 19 16 18 17 18 51 -1 29
-17 38 -19 60 -9 21 10 29 9 43 -4 19 -17 40 -20 40 -6 0 17 192 -5 253 -28
16 -6 32 -9 36 -7 20 13 249 -43 281 -68 8 -7 28 -13 44 -14 16 -1 35 -7 42
-13 8 -6 20 -9 28 -6 8 3 20 -1 26 -9 7 -8 21 -14 31 -14 10 0 21 -4 24 -10 3
-5 20 -9 38 -8 18 1 42 -4 53 -10 12 -6 29 -11 40 -10 18 1 90 -7 180 -19 54
-7 67 13 17 26 -21 6 -45 11 -53 11 -8 0 -28 7 -43 15 -16 8 -51 15 -78 16
-27 1 -49 6 -49 10 0 15 -78 30 -119 23 -31 -5 -41 -3 -41 7 -1 22 -39 44
-120 68 -41 13 -93 29 -115 36 -22 7 -78 23 -125 35 -47 13 -104 29 -128 37
-23 7 -50 13 -58 13 -8 0 -36 6 -62 14 -26 7 -74 22 -107 31 -33 10 -89 21
-125 26 -36 4 -75 11 -87 15 -23 6 -23 5 -23 -80z"/>
<path d="M3300 3399 c-80 -4 -230 -13 -335 -19 -219 -12 -320 -23 -337 -38 -7
-5 -35 -13 -63 -16 -27 -4 -84 -11 -125 -17 -41 -5 -127 -14 -190 -19 -63 -5
-146 -14 -185 -19 -108 -16 -293 -32 -475 -41 -237 -13 -513 -35 -525 -42 -6
-4 -87 -7 -180 -9 -117 -1 -184 -6 -215 -16 -25 -8 -101 -19 -170 -24 -69 -5
-174 -13 -235 -18 -60 -6 -145 -10 -187 -10 l-78 -1 0 -305 0 -305 43 6 c23 3
53 8 67 11 14 3 59 11 100 18 89 16 178 38 240 59 25 9 53 19 63 22 9 4 20 17
23 30 12 47 -13 63 -179 119 -87 29 -161 56 -164 59 -4 3 18 6 48 6 30 1 74 5
99 11 25 5 86 16 135 23 154 24 228 36 290 48 33 6 89 14 125 18 112 13 232
31 310 46 89 16 208 18 265 3 78 -21 105 -22 105 -6 0 9 -9 17 -20 19 -12 2
-21 8 -21 13 -1 15 72 33 180 45 53 6 143 17 201 26 58 8 142 19 188 24 46 6
91 14 100 19 9 4 46 12 82 15 36 4 69 11 75 16 5 4 39 13 75 19 99 17 160 29
220 45 140 37 179 46 209 46 18 0 41 5 52 11 11 6 50 14 87 19 37 4 96 13 132
19 36 7 106 18 155 26 50 8 106 18 125 21 19 3 59 6 88 5 50 0 53 1 50 22 -4
27 -30 28 -248 16z"/>
<path d="M585 3190 c3 -5 21 -10 38 -10 24 0 28 3 17 10 -20 13 -63 13 -55 0z"/>
<path d="M0 1056 l0 -1056 4500 0 4500 0 0 355 c0 238 -3 355 -10 355 -6 0
-22 -7 -35 -16 -30 -19 -59 -11 -53 14 3 10 -2 24 -10 31 -13 12 -14 12 -10 0
5 -15 -18 -43 -43 -52 -9 -3 -40 5 -69 19 -28 13 -56 21 -62 18 -5 -3 -8 2 -6
12 2 12 -3 19 -12 19 -8 0 -14 -8 -14 -17 2 -21 -29 -32 -53 -20 -10 5 -24 7
-32 4 -9 -3 -12 0 -8 10 3 9 0 21 -6 27 -13 13 -76 14 -97 1 -9 -5 -19 -5 -27
2 -7 5 -19 8 -26 5 -13 -5 -156 14 -202 27 -28 8 -141 17 -200 17 -27 0 -74 0
-104 0 -29 0 -61 4 -70 8 -10 6 -23 6 -33 0 -11 -6 -18 -4 -21 6 -5 11 -18 13
-59 8 -29 -3 -59 -9 -67 -13 -16 -9 -48 6 -68 30 -9 12 -14 12 -24 3 -8 -8
-19 -9 -36 -2 -14 5 -46 9 -72 8 -25 -1 -58 3 -72 9 -15 6 -29 8 -32 6 -3 -3
-15 0 -27 6 -14 7 -25 8 -33 2 -7 -6 -39 -10 -72 -10 -33 0 -70 -3 -82 -7 -16
-5 -23 -2 -28 14 -5 16 -12 20 -31 15 -18 -5 -24 -2 -24 10 0 20 -11 20 -48
-1 -28 -16 -31 -16 -55 0 -18 12 -48 17 -94 17 -38 1 -79 7 -93 14 -21 12 -29
12 -51 0 -15 -7 -29 -19 -32 -26 -3 -7 -6 -1 -6 14 -1 23 -7 29 -42 38 -22 6
-48 10 -57 8 -9 -1 -23 1 -30 6 -7 4 -19 2 -28 -5 -23 -19 -76 -17 -103 3 -24
18 -62 16 -90 -6 -12 -9 -14 -8 -9 4 4 12 -2 15 -31 12 -28 -3 -44 2 -67 21
-25 21 -37 24 -84 20 -42 -3 -57 0 -67 13 -8 12 -16 13 -29 6 -13 -7 -24 -6
-40 4 -16 11 -28 12 -48 5 -31 -13 -57 -5 -49 15 7 19 -7 18 -22 -3 -12 -16
-17 -16 -71 -1 -33 9 -74 14 -92 11 -19 -3 -41 0 -55 9 -28 19 -77 28 -152 29
-33 1 -66 6 -72 11 -7 6 -22 8 -33 5 -11 -3 -30 3 -44 14 -13 11 -40 19 -59
19 -20 0 -39 5 -42 10 -4 6 -18 9 -33 8 -30 -2 -64 14 -92 42 -26 26 -76 22
-73 -5 1 -11 0 -14 -3 -7 -3 6 -11 12 -17 12 -6 0 -23 15 -38 33 -24 28 -30
31 -48 20 -28 -18 -45 -16 -82 6 -17 11 -37 17 -44 15 -7 -3 -16 -1 -20 5 -3
6 -15 11 -26 11 -11 0 -45 11 -75 25 -30 14 -70 27 -87 29 -44 6 -80 21 -96
40 -7 9 -17 14 -21 11 -4 -2 -24 4 -44 15 -21 10 -43 17 -50 14 -7 -3 -20 4
-30 15 -10 11 -22 19 -26 16 -4 -2 -24 4 -44 15 -21 10 -44 16 -51 14 -7 -3
-16 -1 -20 5 -3 6 -23 11 -44 11 -22 0 -44 6 -51 15 -11 14 -15 14 -29 1 -9
-8 -41 -16 -71 -18 -48 -3 -55 -6 -58 -26 -2 -12 -8 -20 -13 -17 -5 4 -5 14 2
26 12 23 7 31 -19 35 -42 6 -108 30 -115 41 -4 7 -17 13 -27 13 -11 0 -20 6
-20 14 0 19 -34 26 -76 14 -28 -7 -39 -6 -53 6 -11 10 -21 12 -31 6 -8 -5 -17
-7 -22 -4 -13 8 -142 25 -187 25 -36 0 -48 5 -69 29 -15 17 -34 30 -44 30 -10
0 -27 9 -37 19 -17 17 -18 20 -2 36 15 15 15 17 -3 30 -12 9 -33 12 -63 8 -39
-5 -44 -3 -41 13 2 15 -2 18 -22 16 -14 -1 -35 3 -47 9 -18 10 -31 9 -63 -1
-38 -12 -42 -12 -60 8 -16 17 -28 20 -53 16 -36 -6 -46 -6 -132 3 -33 3 -190
7 -350 8 -159 2 -366 6 -460 10 -93 5 -189 8 -211 7 -30 -1 -47 5 -60 19 -18
20 -18 21 1 36 14 9 30 12 50 7 39 -9 49 -9 255 10 345 31 400 37 400 46 0 22
-746 22 -844 0 -37 -8 -57 -8 -78 1 -39 16 -295 -5 -319 -26 -8 -8 -23 -15
-32 -15 -9 0 -19 -5 -22 -11 -4 -5 -19 -8 -33 -5 -37 8 -242 18 -390 18 -132
1 -128 -1 -107 50 6 15 2 16 -32 11 -21 -3 -44 -11 -52 -17 -12 -9 -13 -8 -9
5 5 13 2 16 -15 11 -12 -2 -28 -9 -34 -15 -24 -18 -14 29 12 57 13 14 23 26
22 27 -1 0 -113 3 -249 5 l-248 5 0 -1055z m380 989 c0 -8 -6 -15 -14 -15 -17
0 -28 14 -19 24 12 12 33 6 33 -9z m1290 -123 c0 -5 -11 -14 -25 -20 -22 -10
-25 -9 -25 8 0 15 7 20 25 20 14 0 25 -4 25 -8z m2690 -472 c0 -5 -10 -10 -22
-10 -19 0 -20 2 -8 10 19 13 30 13 30 0z"/>
</g>
</svg>
